<?xml version="1.0" ?><svg viewBox="0 0 98.33 98.34" xmlns="http://www.w3.org/2000/svg"><title/><g data-name="Layer 2" id="Layer_2"><g data-name="Layer 1" id="Layer_1-2"><path d="M24.57,49a55.18,55.18,0,0,0,6.66,5.16,18.69,18.69,0,0,1,0-10.33A54.61,54.61,0,0,0,24.57,49Z"/><path d="M67.34,54.14A55.14,55.14,0,0,0,73.91,49a55.16,55.16,0,0,0-6.58-5.1A18.68,18.68,0,0,1,67.34,54.14Z"/><path d="M49.28,37.8A11.26,11.26,0,1,0,60.54,49.06,11.28,11.28,0,0,0,49.28,37.8Zm0,15A3.75,3.75,0,1,1,53,49.06,3.75,3.75,0,0,1,49.28,52.82Z"/><path d="M49.17,0A49.17,49.17,0,1,0,98.33,49.17,49.22,49.22,0,0,0,49.17,0Zm32.9,51.55c-.59.67-14.77,16.3-32.83,16.3S17,52.22,16.41,51.55a3.76,3.76,0,0,1,0-5c.6-.66,14.77-16.3,32.83-16.3s32.23,15.63,32.83,16.3A3.75,3.75,0,0,1,82.07,51.55Z"/></g></g></svg>