<svg viewBox="0 0 512 512" xmlns="http://www.w3.org/2000/svg"><rect height="80" rx="8" ry="8" width="80" x="336" y="336" fill="#8d0ffc" class="fill-000000"></rect><rect height="64" rx="8" ry="8" width="64" x="272" y="272" fill="#8d0ffc" class="fill-000000"></rect><rect height="64" rx="8" ry="8" width="64" x="416" y="416" fill="#8d0ffc" class="fill-000000"></rect><rect height="48" rx="8" ry="8" width="48" x="432" y="272" fill="#8d0ffc" class="fill-000000"></rect><rect height="48" rx="8" ry="8" width="48" x="272" y="432" fill="#8d0ffc" class="fill-000000"></rect><rect height="80" rx="8" ry="8" width="80" x="336" y="96" fill="#8d0ffc" class="fill-000000"></rect><rect height="176" rx="16" ry="16" width="176" x="288" y="48" fill="none" stroke="#8d0ffc" stroke-linecap="round" stroke-linejoin="round" stroke-width="32px" class="stroke-000000"></rect><rect height="80" rx="8" ry="8" width="80" x="96" y="96" fill="#8d0ffc" class="fill-000000"></rect><rect height="176" rx="16" ry="16" width="176" x="48" y="48" fill="none" stroke="#8d0ffc" stroke-linecap="round" stroke-linejoin="round" stroke-width="32px" class="stroke-000000"></rect><rect height="80" rx="8" ry="8" width="80" x="96" y="336" fill="#8d0ffc" class="fill-000000"></rect><rect height="176" rx="16" ry="16" width="176" x="48" y="288" fill="none" stroke="#8d0ffc" stroke-linecap="round" stroke-linejoin="round" stroke-width="32px" class="stroke-000000"></rect></svg>